<?xml version="1.0" encoding="UTF-8" standalone="no"?>
<svg
   width="377.66516"
   zoomAndPan="magnify"
   viewBox="0 0 283.24888 311.28686"
   height="415.04916"
   preserveAspectRatio="xMidYMid"
   version="1.0"
   id="svg8"
   sodipodi:docname="portcullis-whit.svg"
   xmlns:inkscape="http://www.inkscape.org/namespaces/inkscape"
   xmlns:sodipodi="http://sodipodi.sourceforge.net/DTD/sodipodi-0.dtd"
   xmlns="http://www.w3.org/2000/svg"
   xmlns:svg="http://www.w3.org/2000/svg">
  <sodipodi:namedview
     id="namedview1"
     pagecolor="#ffffff"
     bordercolor="#000000"
     borderopacity="0.25"
     inkscape:showpageshadow="2"
     inkscape:pageopacity="0.0"
     inkscape:pagecheckerboard="0"
     inkscape:deskcolor="#d1d1d1" />
  <defs
     id="defs8" />
  <path
     stroke-linecap="butt"
     fill="none"
     stroke-linejoin="miter"
     d="m 224.86117,291.55248 h -16.91406 c -0.46875,0 -0.70313,-0.23437 -0.70313,-0.70312 -0.10547,-60.13673 -0.0859,-120.92579 0.0547,-182.37502 0.0274,-9.957025 -0.64844,-18.359365 -2.02343,-25.214838 C 197.14631,42.904027 165.22835,11.142307 124.4471,2.8571548 67.697086,-8.6858177 13.689271,28.380592 2.5798965,84.497782 1.3220865,90.8181 0.71271153,99.083722 0.75177153,109.30247 c 0.140625,50.52735 0.1640625,117.45703 0.070275,200.78126 0,0.125 0.042975,0.23047 0.1328175,0.32031 0.085935,0.0859 0.19139997,0.13282 0.31640247,0.13282 H 281.65409 c 0.5547,0 0.83204,-0.27734 0.83204,-0.83204 -0.0937,-64.4375 -0.0898,-129.56641 0.0117,-195.38282 0.0274,-11.67187 -0.49219,-20.761713 -1.55859,-27.277345 -6.625,-40.625003 -37.91016,-74.34375 -78.37892,-83.4687527 -1.98828,-0.44922 -2.07812,-0.2031225 -0.26952,0.7460925 30.7539,16.0585952 53.30859,45.6289122 59.28516,80.5000052 1.09765,6.394537 1.63671,14.035162 1.61718,22.92187 -0.14062,62.06642 -0.15624,123.05861 -0.043,182.98049 0,0.55077 -0.27734,0.82812 -0.82813,0.82812 h -16.74993 c -0.47656,0 -0.71485,-0.23828 -0.71485,-0.71875 -0.0937,-58.77344 -0.0859,-118.85548 0.0274,-180.23829 0.0195,-9.65234 -0.52344,-17.726563 -1.63281,-24.210935 C 236.3065,45.435277 205.65415,13.46262 165.38071,3.4899673 c -2.2578,-0.550785 -2.36718,-0.269535 -0.32421,0.84375 38.21875,20.8671897 60.70313,57.9062547 60.73437,101.3125027 0.0547,64.28125 0.0625,125.92969 0.0274,184.94923 0,0.63672 -0.32031,0.95703 -0.95703,0.95703"
     stroke="#808080"
     stroke-width="1.5"
     stroke-opacity="1"
     stroke-miterlimit="4"
     id="path1" />
  <path
     stroke-linecap="butt"
     fill="none"
     stroke-linejoin="miter"
     d="m 38.138499,104.77512 c 0.03128,-29.726558 12.27735,-57.835935 34.312507,-77.464838 1.921875,-1.714845 1.703123,-2.050785 -0.648442,-1.01172 -25.941405,11.433593 -43.6875,32.410155 -50.070315,59.859375 -1.23828,5.30469 -1.863278,10.5 -1.871093,15.582033 -0.03908,63.28516 -0.04297,126.3125 -0.0156,189.08204 0,0.20313 0.07027,0.375 0.214838,0.51563 0.144532,0.14453 0.31641,0.21484 0.515625,0.21484 h 16.789065 c 0.210937,0 0.39063,-0.0743 0.539062,-0.22266 0.14844,-0.14844 0.22266,-0.32812 0.22266,-0.53515 -0.03907,-62.54688 -0.03518,-124.55079 0.0117,-186.01955"
     stroke="#808080"
     stroke-width="1.5"
     stroke-opacity="1"
     stroke-miterlimit="4"
     id="path2" />
  <path
     stroke-linecap="butt"
     fill="none"
     stroke-linejoin="miter"
     d="m 109.59944,26.22825 c -22.683589,9.910155 -38.273434,25.972657 -46.765624,48.1875 -3.527347,9.234375 -5.296875,17.375002 -5.316405,24.425782 -0.11328,62.261718 -0.12891,126.257818 -0.04297,191.980478 0,0.48828 0.242183,0.73047 0.730463,0.73047 h 16.789065 c 0.460935,0 0.69141,-0.23047 0.69141,-0.6875 0.101557,-58.73047 0.08203,-117.92579 -0.05858,-177.58204 -0.02737,-11.7461 0.527347,-20.8125 1.660155,-27.195315 4.097655,-23.13672 15.046875,-42.812498 32.847656,-59.031255 1.5,-1.359375 1.32032,-1.63281 -0.53515,-0.82812"
     stroke="#808080"
     stroke-width="1.5"
     stroke-opacity="1"
     stroke-miterlimit="4"
     id="path3" />
  <path
     stroke-linecap="butt"
     fill="none"
     stroke-linejoin="miter"
     d="M 138.87679,30.138405 C 115.73225,43.560277 101.5682,62.90403 96.380694,88.169662 c -1.207035,5.914058 -1.804688,14.371088 -1.785158,25.367178 0.121095,61.49219 0.160155,120.57814 0.11328,177.25783 0,0.5039 0.249998,0.75781 0.746093,0.75781 h 92.003921 c 0.48828,0 0.73047,-0.23828 0.73047,-0.71875 0.0273,-59.72266 0.043,-119.44922 0.043,-179.1836 0,-11.07032 -0.59766,-19.289063 -1.78516,-24.664065 -5.63672,-25.32813 -20.17578,-44.550788 -43.62109,-57.664065 -0.42188,-0.24219 -0.86719,-0.308595 -1.33594,-0.195315 -0.95313,0.214845 -1.82812,0.550785 -2.61328,1.01172"
     stroke="#808080"
     stroke-width="1.5"
     stroke-opacity="1"
     stroke-miterlimit="4"
     id="path4" />
  <path
     fill="#000000"
     d="m 225.81425,290.5915 c 0.0352,-59.01953 0.0234,-120.66797 -0.043,-184.94531 -0.0391,-43.410149 -22.51171,-80.445305 -60.73046,-101.3124927 -2.04297,-1.117188 -1.9336,-1.398438 0.32812,-0.84375 40.26953,9.9687497 70.92188,41.9453117 77.87109,82.8906297 1.10547,6.48828 1.64844,14.558583 1.62891,24.214833 -0.11328,61.3789 -0.125,121.46094 -0.0391,180.23437 0,0.48047 0.23828,0.71875 0.71875,0.71875 h 16.74609 c 0.55078,0 0.82813,-0.27734 0.82813,-0.82812 -0.11328,-59.92188 -0.0977,-120.91406 0.043,-182.98047 0.0273,-8.886713 -0.51172,-16.527333 -1.61329,-22.921863 -5.97656,-34.871099 -28.53125,-64.441411 -59.28515,-80.5000047 -1.8086,-0.945313 -1.71875,-1.195313 0.26953,-0.746094 40.46875,9.1289067 71.75391,42.8476567 78.37891,83.4687487 1.0664,6.51563 1.58984,15.609373 1.55859,27.281243 -0.10156,65.8125 -0.10156,130.94141 0,195.37891 0,0.55468 -0.27734,0.83203 -0.82813,0.83203 H 1.2634685 c -0.125,0 -0.230468,-0.0469 -0.32031197,-0.13281 -0.08594,-0.0899 -0.128906,-0.19532 -0.128906,-0.32032 0.09375,-83.32422 0.07031,-150.2539 -0.07031,-200.78125 C 0.70878153,99.083697 1.3181565,90.814167 2.5720625,84.497757 13.681437,28.376666 67.689246,-8.6897407 124.44316,2.8571353 c 40.77734,8.2812497 72.69531,40.0468737 80.82422,80.4023417 1.3789,6.85156 2.05078,15.25391 2.02344,25.210933 -0.14063,61.44922 -0.16016,122.23828 -0.0547,182.375 0,0.46875 0.23437,0.70312 0.70312,0.70312 h 16.91407 c 0.63671,0 0.95703,-0.32031 0.95703,-0.95703 z M 38.138468,104.77119 c 0.03906,-29.722653 12.273438,-57.832024 34.308598,-77.460931 1.92187,-1.71875 1.70703,-2.054687 -0.64844,-1.015624 -25.941408,11.433593 -43.687501,32.414062 -50.070314,59.859372 -1.238281,5.3086 -1.863281,10.5 -1.871094,15.582023 -0.03906,63.28516 -0.03906,126.3125 0,189.08203 0,0.20313 0.07031,0.375 0.214844,0.51563 0.140625,0.14453 0.316406,0.21484 0.515625,0.21484 H 37.37675 c 0.210937,0 0.390625,-0.0742 0.539062,-0.22265 0.148438,-0.14844 0.222656,-0.32813 0.222656,-0.53516 -0.03906,-62.54687 -0.03906,-124.55078 0,-186.01953 z M 109.5955,26.224322 c -22.683594,9.910156 -38.273434,25.972656 -46.765624,48.191405 -3.52734,9.23047 -5.29688,17.375 -5.31641,24.42188 -0.11328,62.265613 -0.125,126.257803 -0.0391,191.980453 0,0.48829 0.24219,0.73047 0.73047,0.73047 h 16.78906 c 0.46094,0 0.6875,-0.23047 0.6875,-0.6875 0.10547,-58.73047 0.0859,-117.92578 -0.0547,-177.58203 -0.0312,-11.74609 0.52344,-20.808583 1.66016,-27.195303 4.09375,-23.132812 15.04297,-42.808594 32.847664,-59.027344 1.5,-1.359375 1.32031,-1.636718 -0.53516,-0.832031 z m 29.27735,3.910156 c -23.14453,13.425781 -37.3086,32.769531 -42.492194,58.031249 -1.21094,5.91406 -1.80469,14.371083 -1.78906,25.367183 0.12109,61.49609 0.16015,120.58203 0.11328,177.25781 0,0.50391 0.25,0.75781 0.74609,0.75781 h 92.003914 c 0.48828,0 0.73047,-0.23828 0.73047,-0.71875 0.0273,-59.72265 0.043,-119.44922 0.043,-179.17968 0,-11.07421 -0.59375,-19.292963 -1.78516,-24.664063 -5.63281,-25.332028 -20.17188,-44.550778 -43.61719,-57.667965 -0.42187,-0.242187 -0.86719,-0.308594 -1.33594,-0.195313 -0.95703,0.214844 -1.82812,0.554688 -2.61718,1.011719 z m 0,0"
     fill-opacity="1"
     fill-rule="nonzero"
     id="path5"
     style="fill:#faff69;fill-opacity:1" />
  <path
     fill="#f2fd19"
     d="m 72.447066,27.310259 c -22.03516,19.628907 -34.281254,47.738278 -34.308598,77.460931 -0.05078,61.46875 -0.05078,123.47266 0,186.01953 0,0.20703 -0.07422,0.38672 -0.222656,0.53516 -0.148437,0.14843 -0.328125,0.22265 -0.539062,0.22265 H 20.587687 c -0.199219,0 -0.375,-0.0703 -0.515625,-0.21484 -0.144531,-0.14063 -0.214844,-0.3125 -0.214844,-0.51563 -0.02734,-62.76953 -0.02734,-125.79687 0,-189.08203 0,-5.082023 0.625,-10.273423 1.871094,-15.582023 6.382813,-27.44531 24.128906,-48.425779 50.070314,-59.859372 2.35547,-1.039063 2.57031,-0.703126 0.64844,1.015624 z m 0,0"
     fill-opacity="1"
     fill-rule="nonzero"
     id="path6"
     style="fill:#010101;fill-opacity:1" />
  <path
     fill="#f2fd19"
     d="m 109.5955,26.224322 c 1.85547,-0.804687 2.03516,-0.527344 0.53516,0.832031 -17.800784,16.21875 -28.750004,35.894532 -32.847664,59.027344 -1.13281,6.38672 -1.6875,15.449213 -1.66015,27.195303 0.14453,59.65625 0.16406,118.85156 0.0586,177.58203 0,0.45703 -0.23047,0.6875 -0.6914,0.6875 h -16.78907 c -0.48437,0 -0.73047,-0.24218 -0.73047,-0.73047 -0.082,-65.72265 -0.0703,-129.71484 0.043,-191.980453 0.0234,-7.04688 1.79688,-15.19141 5.3125,-24.42188 8.49219,-22.218749 24.08203,-38.281249 46.769534,-48.191405 z m 0,0"
     fill-opacity="1"
     fill-rule="nonzero"
     id="path7"
     style="fill:#000000;fill-opacity:1" />
  <path
     fill="#f2fd19"
     d="m 138.87285,30.134478 c 0.78515,-0.457031 1.66015,-0.796875 2.61328,-1.011719 0.46875,-0.113281 0.91406,-0.04687 1.33594,0.195313 23.44531,13.117187 37.98437,32.335937 43.62109,57.667965 1.1875,5.3711 1.78516,13.589853 1.78516,24.664063 0,59.73046 -0.0156,119.45703 -0.0469,179.17968 0,0.48047 -0.24219,0.71875 -0.73047,0.71875 H 95.447046 c -0.4961,0 -0.74219,-0.2539 -0.74219,-0.75781 0.043,-56.67969 0.008,-115.76172 -0.11328,-177.25781 -0.0273,-10.9961 0.57031,-19.453123 1.78515,-25.367183 5.183604,-25.261718 19.347664,-44.605468 42.492194,-58.031249 z m 0,0"
     fill-opacity="1"
     fill-rule="nonzero"
     id="path8"
     style="fill:#000000;fill-opacity:1" />
</svg>
